# xmcd
#
# Track frame offsets: 
#        182
#        7665
#        29270
#        48790
#        69952
#        94380
#        112715
#        134360
#        149990
#        176817
#        192555
#        215917
#
# Disc length: 3108 seconds
#
# Revision: 4
# Processed by: cddbd v1.5.2PL0 Copyright (c) Steve Scherf et al.
# Submitted via: ExactAudioCopy v1.1
#
DISCID=ae0c220c
DTITLE=The Dutch Swing College Band - Digital Dixie
DYEAR=1981
DGENRE=Jazz
TTITLE0=Way down yonder in New Orleans
TTITLE1=Knee drops
TTITLE2=West End blues
TTITLE3=At a Georgia camp meeting
TTITLE4=I want a little girl
TTITLE5=China boy
TTITLE6=Creole belles
TTITLE7=Sugar
TTITLE8=The kazoos
TTITLE9=Down home rag
TTITLE10=On Green Dolphin street
TTITLE11=Everybody loves my babv
EXTD=
EXTT0=
EXTT1=
EXTT2=
EXTT3=
EXTT4=
EXTT5=
EXTT6=
EXTT7=
EXTT8=
EXTT9=
EXTT10=
EXTT11=
PLAYORDER=
